<svg width="111" height="29" viewBox="0 0 111 29" fill="none" xmlns="http://www.w3.org/2000/svg">
<path d="M5.57622 28.9212C4.70207 28.9212 3.95374 28.6165 3.33123 28.0073C2.70873 27.398 2.39748 26.6656 2.39748 25.8101V5.58784C1.94716 5.58784 1.56968 5.43877 1.26505 5.14062C0.96042 4.84247 0.808105 4.47303 0.808105 4.03228C0.808105 3.59154 0.96042 3.2221 1.26505 2.92395C1.56968 2.6258 1.94716 2.47673 2.39748 2.47673H8.75496C8.75496 2.03599 8.90728 1.66654 9.21191 1.3684C9.51654 1.07025 9.89401 0.921173 10.3443 0.921173H16.7018C17.1521 0.921173 17.5296 1.07025 17.8343 1.3684C18.1389 1.66654 18.2912 2.03599 18.2912 2.47673H24.6487C25.099 2.47673 25.4765 2.6258 25.7811 2.92395C26.0857 3.2221 26.2381 3.59154 26.2381 4.03228C26.2381 4.47303 26.0857 4.84247 25.7811 5.14062C25.4765 5.43877 25.099 5.58784 24.6487 5.58784V25.8101C24.6487 26.6656 24.3374 27.398 23.7149 28.0073C23.0924 28.6165 22.3441 28.9212 21.4699 28.9212H5.57622ZM21.4699 5.58784H5.57622V25.8101H21.4699V5.58784ZM13.5231 17.8767L16.5429 20.8323C16.8343 21.1175 17.2051 21.2601 17.6554 21.2601C18.1058 21.2601 18.4766 21.1175 18.768 20.8323C19.0594 20.5471 19.2051 20.1841 19.2051 19.7434C19.2051 19.3027 19.0594 18.9397 18.768 18.6545L15.7482 15.699L18.768 12.7434C19.0594 12.4582 19.2051 12.0952 19.2051 11.6545C19.2051 11.2138 19.0594 10.8508 18.768 10.5656C18.4766 10.2804 18.1058 10.1378 17.6554 10.1378C17.2051 10.1378 16.8343 10.2804 16.5429 10.5656L13.5231 13.5212L10.5033 10.5656C10.2119 10.2804 9.84104 10.1378 9.39071 10.1378C8.94039 10.1378 8.56954 10.2804 8.27815 10.5656C7.98677 10.8508 7.84108 11.2138 7.84108 11.6545C7.84108 12.0952 7.98677 12.4582 8.27815 12.7434L11.298 15.699L8.27815 18.6545C7.98677 18.9397 7.84108 19.3027 7.84108 19.7434C7.84108 20.1841 7.98677 20.5471 8.27815 20.8323C8.56954 21.1175 8.94039 21.2601 9.39071 21.2601C9.84104 21.2601 10.2119 21.1175 10.5033 20.8323L13.5231 17.8767Z" fill="white"/>
<path d="M51.7224 15.5071H48.8005L48.7849 13.804H51.199C51.6261 13.804 51.9724 13.7519 52.238 13.6477C52.5089 13.5436 52.7068 13.3925 52.8318 13.1946C52.9568 12.9915 53.0193 12.7415 53.0193 12.4446C53.0193 12.1061 52.9568 11.8326 52.8318 11.6243C52.7068 11.416 52.5089 11.2649 52.238 11.1712C51.9724 11.0722 51.6287 11.0227 51.2068 11.0227H49.7224V20.4212H47.1755V9.04617H51.2068C51.8891 9.04617 52.4985 9.10867 53.0349 9.23367C53.5714 9.35867 54.0271 9.55138 54.4021 9.8118C54.7823 10.0722 55.0714 10.3977 55.2693 10.7884C55.4672 11.179 55.5662 11.6399 55.5662 12.1712C55.5662 12.6347 55.462 13.067 55.2537 13.468C55.0505 13.8691 54.7224 14.1946 54.2693 14.4446C53.8162 14.6946 53.2094 14.83 52.449 14.8509L51.7224 15.5071ZM51.6208 20.4212H48.1521L49.074 18.4524H51.6208C52.0115 18.4524 52.3292 18.3899 52.574 18.2649C52.8188 18.1399 52.9985 17.9707 53.113 17.7571C53.2276 17.5436 53.2849 17.304 53.2849 17.0384C53.2849 16.7259 53.2302 16.455 53.1208 16.2259C53.0167 15.9967 52.85 15.8196 52.6208 15.6946C52.3969 15.5696 52.0974 15.5071 51.7224 15.5071H49.4412L49.4568 13.804H52.2458L52.8396 14.4759C53.5636 14.4602 54.1417 14.5774 54.574 14.8274C55.0115 15.0722 55.3266 15.3951 55.5193 15.7962C55.712 16.1972 55.8083 16.6217 55.8083 17.0696C55.8083 17.8092 55.6495 18.429 55.3318 18.929C55.0141 19.4238 54.5427 19.7962 53.9177 20.0462C53.2979 20.2962 52.5323 20.4212 51.6208 20.4212ZM66.9412 14.4837V14.9915C66.9412 15.8561 66.8214 16.6321 66.5818 17.3196C66.3474 18.0071 66.0115 18.593 65.574 19.0774C65.1417 19.5618 64.6261 19.9342 64.0271 20.1946C63.4333 20.4498 62.7745 20.5774 62.0505 20.5774C61.3266 20.5774 60.6651 20.4498 60.0662 20.1946C59.4672 19.9342 58.9464 19.5618 58.5037 19.0774C58.0662 18.593 57.7276 18.0071 57.488 17.3196C57.2485 16.6321 57.1287 15.8561 57.1287 14.9915V14.4837C57.1287 13.6191 57.2485 12.843 57.488 12.1555C57.7276 11.4628 58.0636 10.8743 58.4958 10.3899C58.9333 9.90555 59.4516 9.53576 60.0505 9.28055C60.6495 9.02013 61.311 8.88992 62.0349 8.88992C62.7589 8.88992 63.4203 9.02013 64.0193 9.28055C64.6182 9.53576 65.1339 9.90555 65.5662 10.3899C66.0037 10.8743 66.3422 11.4628 66.5818 12.1555C66.8214 12.843 66.9412 13.6191 66.9412 14.4837ZM64.3708 14.9915V14.468C64.3708 13.8899 64.3188 13.3795 64.2146 12.9368C64.1104 12.4889 63.9594 12.1139 63.7615 11.8118C63.5636 11.5097 63.3188 11.2832 63.0271 11.1321C62.7354 10.9759 62.4047 10.8977 62.0349 10.8977C61.6495 10.8977 61.3136 10.9759 61.0271 11.1321C60.7406 11.2832 60.4985 11.5097 60.3005 11.8118C60.1078 12.1139 59.9594 12.4889 59.8552 12.9368C59.7563 13.3795 59.7068 13.8899 59.7068 14.468V14.9915C59.7068 15.5644 59.7563 16.0748 59.8552 16.5227C59.9594 16.9654 60.1104 17.3404 60.3083 17.6477C60.5063 17.955 60.7485 18.1868 61.0349 18.343C61.3266 18.4993 61.6651 18.5774 62.0505 18.5774C62.4203 18.5774 62.7485 18.4993 63.0349 18.343C63.3266 18.1868 63.5714 17.955 63.7693 17.6477C63.9672 17.3404 64.1156 16.9654 64.2146 16.5227C64.3188 16.0748 64.3708 15.5644 64.3708 14.9915ZM68.5037 9.04617H72.8708C73.7406 9.04617 74.4932 9.17638 75.1287 9.4368C75.7693 9.69721 76.2615 10.0826 76.6052 10.593C76.949 11.1035 77.1208 11.7337 77.1208 12.4837C77.1208 13.1087 77.0193 13.6399 76.8162 14.0774C76.613 14.5149 76.3266 14.8769 75.9568 15.1634C75.5922 15.4498 75.1651 15.6816 74.6755 15.8587L73.8474 16.3118H70.1287L70.113 14.3352H72.8787C73.2589 14.3352 73.574 14.2675 73.824 14.1321C74.074 13.9967 74.2615 13.8066 74.3865 13.5618C74.5167 13.3118 74.5818 13.0201 74.5818 12.6868C74.5818 12.343 74.5167 12.0462 74.3865 11.7962C74.2563 11.5462 74.0636 11.3561 73.8083 11.2259C73.5583 11.0904 73.2458 11.0227 72.8708 11.0227H71.0505V20.4212H68.5037V9.04617ZM74.8005 20.4212L72.2458 15.3665L74.9333 15.3587L77.5271 20.304V20.4212H74.8005ZM78.8474 9.04617H83.2146C84.0844 9.04617 84.837 9.17638 85.4724 9.4368C86.113 9.69721 86.6052 10.0826 86.949 10.593C87.2927 11.1035 87.4646 11.7337 87.4646 12.4837C87.4646 13.1087 87.363 13.6399 87.1599 14.0774C86.9568 14.5149 86.6703 14.8769 86.3005 15.1634C85.936 15.4498 85.5089 15.6816 85.0193 15.8587L84.1912 16.3118H80.4724L80.4568 14.3352H83.2224C83.6026 14.3352 83.9177 14.2675 84.1677 14.1321C84.4177 13.9967 84.6052 13.8066 84.7302 13.5618C84.8604 13.3118 84.9255 13.0201 84.9255 12.6868C84.9255 12.343 84.8604 12.0462 84.7302 11.7962C84.6 11.5462 84.4073 11.3561 84.1521 11.2259C83.9021 11.0904 83.5896 11.0227 83.2146 11.0227H81.3943V20.4212H78.8474V9.04617ZM85.1443 20.4212L82.5896 15.3665L85.2771 15.3587L87.8708 20.304V20.4212H85.1443ZM93.9177 11.2102L90.9802 20.4212H88.2615L92.4724 9.04617H94.1912L93.9177 11.2102ZM96.3552 20.4212L93.4099 11.2102L93.1052 9.04617H94.8474L99.074 20.4212H96.3552ZM96.2302 16.1868V18.1555H90.3005V16.1868H96.2302ZM100.019 9.04617H104.386C105.256 9.04617 106.009 9.17638 106.644 9.4368C107.285 9.69721 107.777 10.0826 108.121 10.593C108.465 11.1035 108.636 11.7337 108.636 12.4837C108.636 13.1087 108.535 13.6399 108.332 14.0774C108.129 14.5149 107.842 14.8769 107.472 15.1634C107.108 15.4498 106.681 15.6816 106.191 15.8587L105.363 16.3118H101.644L101.629 14.3352H104.394C104.774 14.3352 105.09 14.2675 105.34 14.1321C105.59 13.9967 105.777 13.8066 105.902 13.5618C106.032 13.3118 106.097 13.0201 106.097 12.6868C106.097 12.343 106.032 12.0462 105.902 11.7962C105.772 11.5462 105.579 11.3561 105.324 11.2259C105.074 11.0904 104.761 11.0227 104.386 11.0227H102.566V20.4212H100.019V9.04617ZM106.316 20.4212L103.761 15.3665L106.449 15.3587L109.043 20.304V20.4212H106.316Z" fill="white"/>
</svg>
