<svg width="101" height="29" viewBox="0 0 101 29" fill="none" xmlns="http://www.w3.org/2000/svg">
<path d="M2.78488 28.9212C2.0845 28.9212 1.48493 28.6718 0.986172 28.173C0.487416 27.6743 0.238037 27.0747 0.238037 26.3743C0.238037 25.6739 0.487416 25.0744 0.986172 24.5756C1.48493 24.0769 2.0845 23.8275 2.78488 23.8275H23.1596C23.86 23.8275 24.4596 24.0769 24.9583 24.5756C25.4571 25.0744 25.7065 25.6739 25.7065 26.3743C25.7065 27.0747 25.4571 27.6743 24.9583 28.173C24.4596 28.6718 23.86 28.9212 23.1596 28.9212H2.78488ZM4.0583 21.2806C3.6975 21.2806 3.39506 21.1586 3.15099 20.9145C2.90692 20.6705 2.78488 20.368 2.78488 20.0072V17.0465C2.78488 16.8767 2.81672 16.7122 2.88039 16.5531C2.94406 16.3939 3.03957 16.2506 3.16691 16.1233L14.3093 4.98084L19.0847 9.75617L7.94224 20.8986C7.8149 21.026 7.67164 21.1215 7.51246 21.1851C7.35328 21.2488 7.1888 21.2806 7.01901 21.2806H4.0583ZM5.33172 18.7338H6.4778L15.5191 9.75617L14.3093 8.54642L5.33172 17.5877V18.7338ZM20.5173 8.35541L15.7419 3.58008L18.0341 1.28792C18.2676 1.03323 18.5647 0.911198 18.9255 0.92181C19.2863 0.932422 19.5834 1.05446 19.8169 1.28792L22.8094 4.28046C23.0429 4.51392 23.1596 4.80575 23.1596 5.15594C23.1596 5.50613 23.0429 5.80857 22.8094 6.06325L20.5173 8.35541Z" fill="white"/>
<path d="M54.3784 18.4524V20.4212H48.3237V18.4524H54.3784ZM49.1909 9.04617V20.4212H46.644V9.04617H49.1909ZM53.5972 13.6243V15.5305H48.3237V13.6243H53.5972ZM54.3862 9.04617V11.0227H48.3237V9.04617H54.3862ZM59.23 20.4212H56.73L56.7456 18.4524H59.23C59.7977 18.4524 60.2769 18.3222 60.6675 18.0618C61.0581 17.7962 61.355 17.4055 61.5581 16.8899C61.7612 16.3691 61.8628 15.7363 61.8628 14.9915V14.468C61.8628 13.9055 61.8055 13.4108 61.6909 12.9837C61.5763 12.5514 61.4071 12.1894 61.1831 11.8977C60.9591 11.6061 60.6805 11.3873 60.3472 11.2415C60.019 11.0957 59.6414 11.0227 59.2144 11.0227H56.6831V9.04617H59.2144C59.9852 9.04617 60.6883 9.17638 61.3237 9.4368C61.9644 9.69721 62.5164 10.0696 62.98 10.554C63.4487 11.0384 63.8107 11.6113 64.0659 12.2727C64.3211 12.9342 64.4487 13.6712 64.4487 14.4837V14.9915C64.4487 15.7988 64.3211 16.5358 64.0659 17.2024C63.8107 17.8639 63.4487 18.4368 62.98 18.9212C62.5164 19.4003 61.967 19.7701 61.3315 20.0305C60.6961 20.291 59.9956 20.4212 59.23 20.4212ZM58.1753 9.04617V20.4212H55.6284V9.04617H58.1753ZM68.7144 9.04617V20.4212H66.1753V9.04617H68.7144ZM75.8315 9.04617V20.4212H73.2925V9.04617H75.8315ZM79.2925 9.04617V11.0227H69.9019V9.04617H79.2925ZM84.3862 11.2102L81.4487 20.4212H78.73L82.9409 9.04617H84.6597L84.3862 11.2102ZM86.8237 20.4212L83.8784 11.2102L83.5737 9.04617H85.3159L89.5425 20.4212H86.8237ZM86.6987 16.1868V18.1555H80.769V16.1868H86.6987ZM90.4878 9.04617H94.855C95.7248 9.04617 96.4774 9.17638 97.1128 9.4368C97.7534 9.69721 98.2456 10.0826 98.5894 10.593C98.9331 11.1035 99.105 11.7337 99.105 12.4837C99.105 13.1087 99.0034 13.6399 98.8003 14.0774C98.5972 14.5149 98.3107 14.8769 97.9409 15.1634C97.5763 15.4498 97.1493 15.6816 96.6597 15.8587L95.8315 16.3118H92.1128L92.0972 14.3352H94.8628C95.243 14.3352 95.5581 14.2675 95.8081 14.1321C96.0581 13.9967 96.2456 13.8066 96.3706 13.5618C96.5008 13.3118 96.5659 13.0201 96.5659 12.6868C96.5659 12.343 96.5008 12.0462 96.3706 11.7962C96.2404 11.5462 96.0477 11.3561 95.7925 11.2259C95.5425 11.0904 95.23 11.0227 94.855 11.0227H93.0347V20.4212H90.4878V9.04617ZM96.7847 20.4212L94.23 15.3665L96.9175 15.3587L99.5112 20.304V20.4212H96.7847Z" fill="white"/>
</svg>
